<svg viewBox="0 0 512 512" xmlns="http://www.w3.org/2000/svg"><path d="M64.33 486h293.89L486 358.22V64.33A38.33 38.33 0 0 0 447.67 26H64.33A38.33 38.33 0 0 0 26 64.33v383.34C26 469.39 42.61 486 64.33 486Z" fill="#012c6b" class="fill-202d40"></path><path d="M358.22 486V373.22a15 15 0 0 1 15-15H486Z" fill="#8c9e56" class="fill-2e4060"></path><path d="M307.11 409.33H204.89V308.39c-39-18.89-63.18-57.63-63.87-101.55C140 144.76 189 92.56 251 90a114.57 114.57 0 0 1 120 114.9c0 44.72-24.28 83.05-63.89 103.5Zm-76.67-25.55h51.12V290.5l7.66-3.83c36.39-14.83 58.57-49.56 56-89.2a89.29 89.29 0 0 0-81.54-83c-53.39-4.33-97.15 36.75-97.15 89.13 0 37.06 21.72 69 56.22 83.06l7.66 3.83Z" fill="#eaff00" class="fill-c0402b"></path><path d="M230.44 396.56h51.12v38.33h-51.12Zm-12.77-63.89h76.66v25.55h-76.66Z" fill="#eaff00" class="fill-c0402b"></path></svg>